<svg width="179" height="162" viewBox="0 0 179 162" fill="none" xmlns="http://www.w3.org/2000/svg">
<g clip-path="url(#clip0_40580_7396)">
<path d="M89.47 161.29C138.883 161.29 178.94 155.326 178.94 147.97C178.94 140.614 138.883 134.65 89.47 134.65C40.0571 134.65 0 140.614 0 147.97C0 155.326 40.0571 161.29 89.47 161.29Z" fill="#2F3C33"/>
<path d="M90.68 153.5C133.068 153.5 167.43 119.138 167.43 76.75C167.43 34.3621 133.068 0 90.68 0C48.2921 0 13.93 34.3621 13.93 76.75C13.93 119.138 48.2921 153.5 90.68 153.5Z" fill="#9AED40"/>
<path d="M46.05 73.22C50.8217 73.22 54.69 69.3517 54.69 64.58C54.69 59.8083 50.8217 55.94 46.05 55.94C41.2783 55.94 37.41 59.8083 37.41 64.58C37.41 69.3517 41.2783 73.22 46.05 73.22Z" fill="#007F43"/>
<path d="M81.27 86.87C86.0417 86.87 89.91 83.0017 89.91 78.23C89.91 73.4583 86.0417 69.59 81.27 69.59C76.4983 69.59 72.63 73.4583 72.63 78.23C72.63 83.0017 76.4983 86.87 81.27 86.87Z" fill="#007F43"/>
<path d="M46.57 81.06C46.57 81.06 51.45 95.58 67.03 89.67L46.57 81.06Z" fill="#007F43"/>
<path d="M46.57 81.06C46.57 81.06 51.45 95.58 67.03 89.67" stroke="#007F43" stroke-width="10" stroke-linecap="round" stroke-linejoin="round"/>
<path d="M155.7 34.73C155.57 25.7 126.9 5.92001 109.54 1.56001C90.21 -3.28999 57 4.09 53.32 10.87L53.12 10.71C52.39 11.63 46.16 19.93 50.38 28.39C54.68 37.01 66.33 38.82 76.45 38.97C78.86 44.27 83.72 51.96 92.25 54.48C99.14 56.52 106.49 54.71 114.14 49.11C119.79 52.25 129.26 56.67 137.92 56.67C141.12 56.67 144.21 56.07 146.96 54.58C151.02 52.38 155.87 47.46 155.93 36.54C155.93 35.91 155.85 35.31 155.7 34.73Z" fill="#DDEDBA"/>
<path d="M132.42 17.79C132.36 13.31 118.11 3.48 109.49 1.31C99.89 -1.1 83.39 2.57 81.57 5.93L81.47 5.85C81.11 6.31 78.01 10.43 80.11 14.63C82.25 18.91 88.03 19.81 93.06 19.89C94.26 22.52 96.67 26.34 100.91 27.59C104.33 28.6 107.98 27.7 111.78 24.92C114.59 26.48 119.29 28.67 123.59 28.67C125.18 28.67 126.71 28.37 128.08 27.63C130.1 26.54 132.51 24.09 132.53 18.67C132.53 18.36 132.49 18.06 132.41 17.77L132.42 17.79Z" fill="#7F8952"/>
<path d="M133.76 53.42C133.76 53.42 147.61 16.65 129.15 22.52C110.69 28.39 112.05 46.66 133.76 53.42Z" fill="#FC8EFF" stroke="#9AED40" stroke-width="2" stroke-miterlimit="10"/>
<path d="M159.81 37.94C147.66 22.89 131.06 30.75 132.57 53.38C132.57 53.38 171.96 52.99 159.81 37.94Z" fill="#FC8EFF" stroke="#9AED40" stroke-width="2" stroke-miterlimit="10"/>
<path d="M153.12 73.66C165.71 58.98 154.9 44.16 132.87 49.82C132.87 49.82 140.53 88.35 153.12 73.66Z" fill="#FC8EFF" stroke="#9AED40" stroke-width="2" stroke-miterlimit="10"/>
<path d="M120.07 75.55C139.21 78.53 146.19 61.58 129.79 45.85C129.79 45.85 100.92 72.58 120.07 75.55Z" fill="#FC8EFF" stroke="#9AED40" stroke-width="2" stroke-miterlimit="10"/>
<path d="M104.82 43.31C103.12 62.56 120.55 68.36 135.19 51C135.19 51 106.52 24.07 104.82 43.31Z" fill="#FC8EFF" stroke="#9AED40" stroke-width="2" stroke-miterlimit="10"/>
</g>
<defs>
<clipPath id="clip0_40580_7396">
<rect width="178.93" height="161.29" fill="white"/>
</clipPath>
</defs>
</svg>
