<svg width="200" height="200" viewBox="0 0 200 200" fill="none" xmlns="http://www.w3.org/2000/svg">
<path d="M53.6281 178.209C57.0632 177.565 63.5447 175.987 75.0244 174.069C78.4318 173.498 80.1336 173.178 81.2058 173.122C91.0503 172.598 97.0947 175.904 105.135 178.804C113.702 181.893 145.174 193.237 168.173 178.291C174.584 174.124 185.06 164.844 183.763 156.648C182.028 145.676 160.017 141.863 146.374 139.5C132.113 137.03 127.204 138.27 99.9873 138.235C76.6706 138.204 66.6855 137.276 55.7077 138.611C54.7688 138.726 50.6614 139.25 45.2707 140.487C30.9614 143.769 22.0632 145.809 18.2003 153.276C15.5651 158.372 15.2151 166.111 18.454 171.42C25.7799 183.431 49.0577 179.067 53.6281 178.211V178.209Z" fill="#BFC6CC"/>
<mask id="mask0_44537_3533" style="mask-type:luminance" maskUnits="userSpaceOnUse" x="16" y="28" width="166" height="156">
<path d="M181.976 28.9812H16.7461V183.757H181.976V28.9812Z" fill="white"/>
</mask>
<g mask="url(#mask0_44537_3533)">
<path d="M116.874 168.211C128.985 169.42 135.6 168.861 142.1 166.061C144.635 164.968 155.559 160.263 155.189 155.322C154.504 146.185 115.704 142.891 97.3928 141.337C97.3928 141.337 54.565 137.702 38.9595 151.031C37.5335 152.248 33.7095 155.517 34.1984 159.18C34.6298 162.409 38.2021 164.378 39.4872 165.085C51.2798 171.581 66.4632 161.639 88.8058 163.226C99.4298 163.981 99.578 166.483 116.874 168.209V168.211Z" fill="#78828A"/>
<path d="M97.3929 158.407C129.891 158.407 156.237 132.06 156.237 99.5622C156.237 67.064 129.891 40.7177 97.3929 40.7177C64.8947 40.7177 38.5484 67.064 38.5484 99.5622C38.5484 132.06 64.8947 158.407 97.3929 158.407Z" fill="#9CA4AB"/>
<path d="M63.1764 83.6814C66.7955 83.6814 69.7281 86.6141 69.7281 90.2332C69.7281 93.8523 66.7955 96.7849 63.1764 96.7849C59.5591 96.7849 56.6246 93.8504 56.6246 90.2332C56.6246 86.6159 59.5573 83.6814 63.1764 83.6814Z" fill="#434E58" stroke="#434E58" stroke-width="0.14537"/>
<path d="M90.1795 94.1462C93.7968 94.1462 96.7312 97.0808 96.7313 100.698C96.7313 104.315 93.7986 107.25 90.1795 107.25C86.5622 107.25 83.6277 104.317 83.6277 100.698C83.6278 97.0789 86.5623 94.1463 90.1795 94.1462Z" fill="#434E58" stroke="#434E58" stroke-width="0.14537"/>
<path d="M77.3513 118.017C77.2754 117.585 76.2717 112.459 71.3309 110.25C65.9531 107.846 61.1031 111.217 60.9031 111.363" stroke="#434E58" stroke-width="2.18056" stroke-linecap="round" stroke-linejoin="round"/>
<path d="M147.244 67.3457C147.144 60.4216 125.163 45.2568 111.853 41.9142C97.0329 38.1957 71.5699 43.8531 68.7496 49.0531L68.5959 48.9309C68.0366 49.6364 63.2588 55.9994 66.4958 62.4864C69.7921 69.0957 78.7255 70.4827 86.4829 70.5975C88.331 74.6605 92.057 80.5568 98.5977 82.4883C103.881 84.0531 109.516 82.6642 115.381 78.3716C119.713 80.779 126.974 84.1679 133.613 84.1679C136.066 84.1679 138.435 83.7086 140.544 82.566C143.657 80.879 147.375 77.1068 147.422 68.7346C147.422 68.2512 147.361 67.792 147.246 67.3475L147.244 67.3457Z" fill="#D1D8DD"/>
<path d="M129.394 54.3574C129.348 50.9222 118.422 43.3852 111.815 41.7222C104.454 39.8741 91.8037 42.6889 90.4093 45.2648L90.3333 45.2037C90.0574 45.5556 87.6815 48.7148 89.2907 51.9352C90.9315 55.2167 95.363 55.9074 99.2204 55.9685C100.141 57.9852 101.989 60.913 105.239 61.8722C107.861 62.6463 110.659 61.9574 113.572 59.8259C115.726 61.0222 119.33 62.7019 122.628 62.7019C123.846 62.7019 125.02 62.4722 126.07 61.9037C127.619 61.0685 129.467 59.1889 129.481 55.0333C129.481 54.7963 129.45 54.5648 129.389 54.3426L129.396 54.3574H129.394Z" fill="#78828A"/>
<path d="M130.422 81.6751C130.422 81.6751 141.041 53.4825 126.887 57.9844C112.733 62.4844 113.776 76.4918 130.422 81.6751Z" fill="#66707A" stroke="#9CA4AB" stroke-width="0.726852" stroke-miterlimit="10"/>
<path d="M150.394 69.8069C141.079 58.268 128.351 64.294 129.509 81.6458C129.509 81.6458 159.709 81.3477 150.394 69.8069Z" fill="#66707A" stroke="#9CA4AB" stroke-width="0.726852" stroke-miterlimit="10"/>
<path d="M145.267 97.1945C154.92 85.939 146.631 74.576 129.741 78.9168C129.741 78.9168 135.613 108.458 145.267 97.1945Z" fill="#66707A" stroke="#9CA4AB" stroke-width="0.726852" stroke-miterlimit="10"/>
<path d="M119.928 98.6443C134.602 100.93 139.954 87.9332 127.38 75.874C127.38 75.874 105.245 96.3684 119.928 98.6443Z" fill="#66707A" stroke="#9CA4AB" stroke-width="0.726852" stroke-miterlimit="10"/>
<path d="M108.235 73.9238C106.931 88.683 120.296 93.1293 131.52 79.82C131.52 79.82 109.538 59.1719 108.235 73.9238Z" fill="#66707A" stroke="#9CA4AB" stroke-width="0.726852" stroke-miterlimit="10"/>
</g>
<path d="M30.1743 58.5354C30.1743 58.5354 33.1317 43.7521 48.8002 46.1169C48.8002 46.1169 49.0965 62.5262 30.1743 58.5354Z" fill="#9CA4AB"/>
<path d="M50.2666 37.7679C48.6092 40.2439 46.9499 42.7402 45.7592 45.4828C44.6518 48.0365 44.3055 51.0142 42.5851 53.2661C38.9444 58.0328 32.3481 58.2031 27.1018 56.492L27.7481 57.6309C28.9444 53.9494 30.561 49.9828 33.787 47.6124C37.3314 45.0087 41.974 45.0494 46.1721 45.1846L45.3721 43.792C42.287 47.8976 38.0907 51.1531 33.3462 53.1179C32.261 53.5679 32.737 55.3605 33.8388 54.9031C39.0758 52.7365 43.5666 49.2587 46.9721 44.7272C47.4184 44.1328 46.8036 43.355 46.1721 43.3346C41.5425 43.1865 36.4888 43.2642 32.6277 46.1828C29.1018 48.8476 27.2907 53.0531 25.961 57.1402C25.8018 57.6328 26.1499 58.1291 26.6073 58.2791C32.2555 60.1198 39.0629 59.842 43.3407 55.2254C45.411 52.9902 45.9536 50.1976 46.961 47.4254C48.1055 44.2791 50.0147 41.4679 51.8647 38.705C52.5296 37.7124 50.9259 36.7828 50.2666 37.7698V37.7679Z" fill="#66707A"/>
<path d="M143.939 168.529C143.939 168.529 156.187 144.549 181.978 156.21C181.978 156.21 174.534 184.562 143.939 168.529Z" fill="#9CA4AB"/>
<path d="M189.037 143.105C185.849 145.825 182.65 148.557 179.784 151.624C178.36 153.148 177.023 154.757 175.815 156.459C174.608 158.161 173.565 159.968 172.375 161.677C170.143 164.877 167.163 167.296 163.478 168.627C159.839 169.942 155.893 170.227 152.086 169.57C147.447 168.77 143.139 166.763 139.258 164.144L139.589 165.411C142.575 160.931 145.963 156.485 150.428 153.379C152.71 151.792 155.23 150.611 157.95 150.013C161.1 149.32 164.397 149.422 167.567 149.925C171.158 150.498 174.654 151.538 178.113 152.637L177.893 150.944C170.389 156.692 161.406 160.392 152.01 161.483C150.839 161.618 150.826 163.472 152.01 163.335C161.736 162.207 171.049 158.503 178.828 152.544C179.449 152.068 179.425 151.111 178.608 150.851C172.239 148.829 165.521 146.942 158.787 147.979C152.93 148.883 147.965 152.333 144.019 156.616C141.778 159.048 139.821 161.729 137.989 164.477C137.699 164.913 137.926 165.477 138.321 165.744C145.21 170.39 153.767 173.157 162.032 171.012C165.71 170.059 169.189 168.163 171.791 165.368C174.773 162.164 176.637 158.094 179.467 154.755C182.71 150.929 186.539 147.661 190.345 144.414C191.252 143.64 189.937 142.335 189.036 143.105H189.037Z" fill="#66707A"/>
<path d="M45.4799 33.9891C45.4503 32.4891 46.8614 31.2114 47.754 30.1206C48.6985 28.9669 49.6651 27.828 50.6929 26.7484C52.7373 24.6002 55.0596 22.6576 57.8336 21.5354C58.9244 21.0947 58.4466 19.3021 57.3411 19.7502C54.1614 21.0373 51.5114 23.1706 49.1799 25.6558C48.0244 26.8891 46.9448 28.191 45.8818 29.5039C44.8188 30.8169 43.5929 32.178 43.6281 33.9891C43.6522 35.1799 45.504 35.1836 45.4799 33.9891Z" fill="#66707A"/>
<path d="M9.97409 99.2884C14.6982 98.5551 19.2908 97.018 23.4426 94.6347C26.8889 92.6551 30.4296 90.2384 32.9019 87.094C37.1296 81.7162 39.6074 71.6421 33.7037 66.5477C30.3722 63.6736 25.3185 62.6773 21.2722 64.5643C17.1741 66.4773 15.3167 71.1347 15.813 75.4569C16.3093 79.7791 19.3185 83.5088 23.5945 84.8903C27.4445 86.1328 31.6759 86.3365 35.5982 85.3125C40.0926 84.1384 43.8352 81.2736 46.7907 77.7625C50.2093 73.7014 51.8815 68.6014 51.4907 63.3014C51.4259 62.4217 51.3074 61.5458 51.1519 60.6791C50.9407 59.5088 49.1556 60.0051 49.3667 61.1717C50.1574 65.5569 49.5482 70.1514 47.2333 74.0014C45.3167 77.1902 42.3148 80.1828 39.0482 81.968C35.2833 84.0254 30.7889 84.5865 26.5963 83.7514C22.9241 83.018 19.5296 81.2828 18.1778 77.5662C16.9333 74.1458 17.5648 69.7958 20.387 67.3291C23.5093 64.5995 28.3352 65.0625 31.6093 67.2588C37.3685 71.1217 35.5222 79.8736 32.2667 84.8328C30.0037 88.2791 26.3574 90.7699 22.8537 92.8347C18.7445 95.2551 14.1908 96.7699 9.4852 97.5014C8.31112 97.6847 8.80927 99.468 9.97779 99.2866L9.97409 99.2884Z" fill="#66707A"/>
</svg>
