<svg width="94" height="84" viewBox="0 0 94 84" fill="none" xmlns="http://www.w3.org/2000/svg">
<g clip-path="url(#clip0_44052_1917)">
<path d="M46.5376 83.8946C72.2396 83.8946 93.0752 80.7926 93.0752 76.9662C93.0752 73.1398 72.2396 70.0378 46.5376 70.0378C20.8356 70.0378 0 73.1398 0 76.9662C0 80.7926 20.8356 83.8946 46.5376 83.8946Z" fill="#66707A"/>
<path d="M47.1671 79.8427C69.215 79.8427 87.0884 61.9693 87.0884 39.9213C87.0884 17.8734 69.215 0 47.1671 0C25.1191 0 7.24573 17.8734 7.24573 39.9213C7.24573 61.9693 25.1191 79.8427 47.1671 79.8427Z" fill="#9CA4AB"/>
<path d="M23.9528 38.0852C26.4348 38.0852 28.4469 36.0731 28.4469 33.5911C28.4469 31.1091 26.4348 29.097 23.9528 29.097C21.4708 29.097 19.4587 31.1091 19.4587 33.5911C19.4587 36.0731 21.4708 38.0852 23.9528 38.0852Z" fill="#434E58"/>
<path d="M42.2724 45.1852C44.7544 45.1852 46.7665 43.1731 46.7665 40.6911C46.7665 38.2091 44.7544 36.197 42.2724 36.197C39.7904 36.197 37.7783 38.2091 37.7783 40.6911C37.7783 43.1731 39.7904 45.1852 42.2724 45.1852Z" fill="#434E58"/>
<path d="M24.2234 42.1632C24.2234 42.1632 26.7617 49.7158 34.8656 46.6417L24.2234 42.1632Z" fill="#434E58"/>
<path d="M24.2234 42.1632C24.2234 42.1632 26.7617 49.7158 34.8656 46.6417" stroke="#434E58" stroke-width="5.20148" stroke-linecap="round" stroke-linejoin="round"/>
<path d="M80.987 18.0648C80.9194 13.3679 66.0068 3.07933 56.977 0.81149C46.9226 -1.71123 29.6485 2.12746 27.7343 5.65406L27.6303 5.57084C27.2506 6.04938 24.0101 10.3666 26.2051 14.7671C28.4417 19.2507 34.5015 20.1922 39.7653 20.2702C41.0189 23.027 43.5468 27.0269 47.9837 28.3377C51.5675 29.3988 55.3906 28.4573 59.3697 25.5445C62.3085 27.1778 67.2343 29.4768 71.7388 29.4768C73.4033 29.4768 75.0106 29.1647 76.441 28.3897C78.5528 27.2454 81.0755 24.6863 81.1067 19.0063C81.1067 18.6786 81.0651 18.3665 80.987 18.0648Z" fill="#D1D8DD"/>
<path d="M68.878 9.25345C68.8468 6.92319 61.4347 1.81014 56.951 0.681416C51.9576 -0.57214 43.3752 1.3368 42.4285 3.0845L42.3765 3.04289C42.1892 3.28215 40.5768 5.42516 41.6691 7.60978C42.7822 9.83601 45.7887 10.3041 48.405 10.3458C49.0292 11.7137 50.2827 13.7007 52.4882 14.3509C54.2671 14.8762 56.1656 14.4081 58.1422 12.9621C59.6038 13.7735 62.0485 14.9127 64.2851 14.9127C65.1122 14.9127 65.908 14.7566 66.6206 14.3717C67.6713 13.8047 68.9248 12.5304 68.9352 9.71118C68.9352 9.54993 68.9144 9.39389 68.8728 9.24305L68.878 9.25345Z" fill="#78828A"/>
<path d="M69.5749 27.7863C69.5749 27.7863 76.779 8.66048 67.177 11.7138C57.5751 14.767 58.2825 24.2701 69.5749 27.7863Z" fill="#66707A" stroke="#9CA4AB" stroke-width="1.0403" stroke-miterlimit="10"/>
<path d="M83.1248 19.7345C76.805 11.9062 68.1706 15.9946 68.956 27.7656C68.956 27.7656 89.4446 27.5627 83.1248 19.7345Z" fill="#66707A" stroke="#9CA4AB" stroke-width="1.0403" stroke-miterlimit="10"/>
<path d="M79.645 38.3141C86.1937 30.6784 80.5709 22.9698 69.1121 25.9138C69.1121 25.9138 73.0964 45.9551 79.645 38.3141Z" fill="#66707A" stroke="#9CA4AB" stroke-width="1.0403" stroke-miterlimit="10"/>
<path d="M62.4542 39.2971C72.4098 40.8472 76.0404 32.0307 67.51 23.8488C67.51 23.8488 52.4933 37.7523 62.4542 39.2971Z" fill="#66707A" stroke="#9CA4AB" stroke-width="1.0403" stroke-miterlimit="10"/>
<path d="M54.5219 22.5276C53.6376 32.5405 62.7038 35.5573 70.3188 26.5275C70.3188 26.5275 55.4061 12.52 54.5219 22.5276Z" fill="#66707A" stroke="#9CA4AB" stroke-width="1.0403" stroke-miterlimit="10"/>
</g>
<defs>
<clipPath id="clip0_44052_1917">
<rect width="93.07" height="83.8946" fill="white"/>
</clipPath>
</defs>
</svg>
