<svg width="131" height="132" viewBox="0 0 131 132" fill="none" xmlns="http://www.w3.org/2000/svg">
<path d="M65.5 131.062C56.5 131.062 48.0625 129.354 40.1875 125.938C32.3125 122.562 25.375 117.875 19.375 111.875C13.4167 105.917 8.75 99.0208 5.375 91.1875C2 83.3125 0.3125 74.875 0.3125 65.875C0.3125 56.875 2 48.4375 5.375 40.5625C8.75 32.6875 13.4167 25.7708 19.375 19.8125C25.375 13.8125 32.3125 9.125 40.1875 5.75C48.0625 2.375 56.5 0.6875 65.5 0.6875C74.5 0.6875 82.9375 2.375 90.8125 5.75C98.6875 9.125 105.604 13.8125 111.562 19.8125C117.521 25.7708 122.188 32.6875 125.562 40.5625C128.979 48.4375 130.688 56.875 130.688 65.875C130.688 74.875 128.979 83.3125 125.562 91.1875C122.188 99.0208 117.521 105.917 111.562 111.875C105.604 117.875 98.6875 122.562 90.8125 125.938C82.9375 129.354 74.5 131.062 65.5 131.062ZM46.8125 95.8125C48.2292 95.8125 49.375 95.5208 50.25 94.9375C51.1667 94.3125 52.1667 93.2083 53.25 91.625L65.1875 74.3125H65.5625L77.25 91.625C78.2917 93.1667 79.2708 94.25 80.1875 94.875C81.1458 95.5 82.3125 95.8125 83.6875 95.8125C85.6458 95.8125 87.2292 95.25 88.4375 94.125C89.6458 93 90.25 91.5208 90.25 89.6875C90.25 88.1042 89.6458 86.5417 88.4375 85L74 65.5L88.5 45.875C89.75 44.3333 90.375 42.75 90.375 41.125C90.375 39.4167 89.7708 38 88.5625 36.875C87.3542 35.75 85.8125 35.1875 83.9375 35.1875C82.5625 35.1875 81.3958 35.5 80.4375 36.125C79.4792 36.7083 78.5417 37.7917 77.625 39.375L66.1875 56.625H65.75L54.0625 39.3125C53.0208 37.7708 52.0208 36.7083 51.0625 36.125C50.1042 35.5 48.9167 35.1875 47.5 35.1875C45.6667 35.1875 44.125 35.7708 42.875 36.9375C41.625 38.1042 41 39.5625 41 41.3125C41 42.9375 41.6458 44.6042 42.9375 46.3125L56.875 65.25L42.25 85.1875C41.0833 86.7292 40.5 88.2917 40.5 89.875C40.5 91.5833 41.0833 93 42.25 94.125C43.4583 95.25 44.9792 95.8125 46.8125 95.8125Z" fill="#E53935"/>
</svg>
